<?xml version="1.0" standalone="no"?>
<!DOCTYPE svg PUBLIC "-//W3C//DTD SVG 20010904//EN"
 "http://www.w3.org/TR/2001/REC-SVG-20010904/DTD/svg10.dtd">
<svg version="1.0" xmlns="http://www.w3.org/2000/svg"
 width="700.000000pt" height="700.000000pt" viewBox="0 0 700.000000 700.000000"
 preserveAspectRatio="xMidYMid meet">
<metadata>
Created by potrace 1.11, written by Peter Selinger 2001-2013
</metadata>
<g transform="translate(0.000000,700.000000) scale(0.100000,-0.100000)"
fill="#000000" stroke="none">
<path d="M2194 6976 c-59 -27 -116 -90 -132 -145 -8 -26 -12 -158 -12 -415 0
-294 -3 -376 -12 -377 -7 0 -368 -2 -803 -3 -785 -2 -790 -2 -830 -23 -52 -28
-100 -78 -121 -128 -17 -37 -18 -103 -19 -870 -1 -742 2 -864 19 -940 2 -11 7
-33 11 -50 10 -46 56 -168 69 -185 7 -8 20 -31 29 -50 16 -33 18 -143 20
-1620 l2 -1585 33 -93 c86 -248 281 -424 527 -477 48 -11 538 -13 2520 -14
2218 -1 2467 1 2530 15 237 54 418 205 508 424 59 142 56 56 57 1758 l0 1563
29 52 c46 82 81 179 99 276 16 81 17 177 17 923 0 822 -1 834 -21 878 -27 57
-67 97 -124 124 -44 20 -58 21 -835 22 -434 1 -793 2 -797 3 -5 1 -8 173 -8
384 0 381 0 382 -24 433 -29 63 -56 89 -121 120 l-50 24 -1255 0 -1255 0 -51
-24z m2270 -700 c1 -130 -1 -236 -4 -237 -33 -7 -1913 -2 -1917 5 -4 5 -7 112
-7 237 l-1 228 60 3 c33 2 467 2 964 2 l905 -2 0 -236z m1786 -1396 c-1 -609
-3 -675 -19 -733 -31 -114 -92 -196 -192 -260 -91 -58 -141 -65 -429 -64
l-255 2 -1 535 c-1 512 -2 537 -21 580 -86 195 -357 195 -446 0 -20 -44 -21
-62 -21 -582 l0 -538 -1366 0 -1366 0 0 538 c0 519 -1 539 -21 582 -88 195
-358 195 -445 0 -20 -43 -20 -67 -22 -580 l-1 -535 -250 -2 c-137 -1 -270 2
-295 8 -117 25 -238 115 -293 217 -55 101 -57 127 -57 845 l0 657 2750 0 2751
0 -1 -670z m-5145 -1544 c33 -2 168 -5 301 -5 l241 -1 -1 -191 c-1 -234 5
-262 77 -333 58 -58 98 -74 178 -71 92 3 173 58 212 145 18 39 20 67 21 247
l1 203 560 0 560 0 0 -1420 0 -1420 -55 0 c-929 -5 -2120 2 -2149 11 -54 18
-95 53 -124 108 l-27 48 0 1361 0 1360 72 -19 c40 -10 100 -20 133 -23z m4993
-1641 l-3 -1050 -28 -48 c-16 -26 -47 -60 -70 -75 l-42 -27 -1105 -3 -1105 -2
0 1420 0 1420 560 0 561 0 0 -202 c1 -181 3 -208 21 -248 87 -194 356 -194
445 0 19 40 21 65 21 247 l1 203 251 1 c293 1 327 3 420 27 l70 17 3 -315 c1
-173 1 -787 0 -1365z"/>
</g>
</svg>
